# Created by Kenney (www.kenney.nl)

mtllib codesmith-logo.mtl

v 1 7 1.5
v 1 7 -1.5
v -1 7 1.5
v -1 7 -1.5
v -1 8 -1.5
v -1 8 1.5
v 1 8 -1.5
v 1 8 1.5
v 0 7 1.5
v 0 7 -1.5
v 0 8 -1.5
v 0 8 1.5
v 3 6 1.5
v 3 6 -1.5
v 1 6 1.5
v 1 6 -1.5
v 3 7 -1.5
v 3 7 1.5
v -1 6 1.5
v -1 6 -1.5
v -3 6 1.5
v -3 6 -1.5
v -3 7 -1.5
v -3 7 1.5
v 5 5 1.5
v 5 5 -1.5
v 3 5 1.5
v 3 5 -1.5
v 5 6 -1.5
v 5 6 1.5
v -3 5 1.5
v -3 5 -1.5
v -5 5 1.5
v -5 5 -1.5
v -5 6 -1.5
v -5 6 1.5
v 6 -3 1.5
v 6 -3 -1.5
v 5 -3 1.5
v 5 -3 -1.5
v 6 5 -1.5
v 6 5 1.5
v 1 4 1.5
v 1 4 -1.5
v -1 4 1.5
v -1 4 -1.5
v -1 5 -1.5
v -1 5 1.5
v 1 5 -1.5
v 1 5 1.5
v -5 3 1.5
v -5 3 -1.5
v -6 3 1.5
v -6 3 -1.5
v -6 5 -1.5
v -6 5 1.5
v 3 1 1.5
v 3 1 -1.5
v 2 1 1.5
v 2 1 -1.5
v 2 4 -1.5
v 2 4 1.5
v 3 4 -1.5
v 3 4 1.5
v 2 3 1.5
v 2 3 -1.5
v 1 3 1.5
v 1 3 -1.5
v -1 3 1.5
v -1 3 -1.5
v -3 3 1.5
v -3 3 -1.5
v -3 4 -1.5
v -3 4 1.5
v -3 2 1.5
v -3 2 -1.5
v -4 2 1.5
v -4 2 -1.5
v -4 3 -1.5
v -4 3 1.5
v 1 1 1.5
v 1 1 -1.5
v 1 2 -1.5
v 1 2 1.5
v 2 2 -1.5
v 2 2 1.5
v 1 0 1.5
v 1 0 -1.5
v -1 0 1.5
v -1 0 -1.5
v -1 1 -1.5
v -1 1 1.5
v -1 -1 1.5
v -1 -1 -1.5
v -3 -1 1.5
v -3 -1 -1.5
v -3 0 -1.5
v -3 0 1.5
v 3 -2 1.5
v 3 -2 -1.5
v 2 -2 1.5
v 2 -2 -1.5
v 2 -1 -1.5
v 2 -1 1.5
v 3 -1 -1.5
v 3 -1 1.5
v -2 -2 1.5
v -2 -2 -1.5
v -3 -2 1.5
v -3 -2 -1.5
v -2 -1 -1.5
v -2 -1 1.5
v -5 -3 1.5
v -5 -3 -1.5
v -6 -3 1.5
v -6 -3 -1.5
v -6 -1 -1.5
v -6 -1 1.5
v -5 -1 -1.5
v -5 -1 1.5
v 2 -3 1.5
v 2 -3 -1.5
v -2 -3 1.5
v -2 -3 -1.5
v 5 -4 1.5
v 5 -4 -1.5
v 3 -4 1.5
v 3 -4 -1.5
v 3 -3 -1.5
v 3 -3 1.5
v -3 -4 1.5
v -3 -4 -1.5
v -5 -4 1.5
v -5 -4 -1.5
v -3 -3 -1.5
v -3 -3 1.5
v 3 -5 1.5
v 3 -5 -1.5
v 1 -5 1.5
v 1 -5 -1.5
v 1 -4 -1.5
v 1 -4 1.5
v -1 -5 1.5
v -1 -5 -1.5
v -3 -5 1.5
v -3 -5 -1.5
v -1 -4 -1.5
v -1 -4 1.5
v 1 -6 1.5
v 1 -6 -1.5
v -1 -6 1.5
v -1 -6 -1.5

vn 0 -1 0
vn -1 0 0
vn 0 0 -1
vn 0 0 1
vn 1 0 0
vn 0 1 0

vt 0.3125 0.1875

usemtl codesmith-logo

f 3/1/1 2/1/1 1/1/1
f 2/1/1 3/1/1 4/1/1
f 3/1/2 5/1/2 4/1/2
f 5/1/2 3/1/2 6/1/2
f 5/1/3 2/1/3 4/1/3
f 2/1/3 5/1/3 7/1/3
f 8/1/4 3/1/4 1/1/4
f 3/1/4 8/1/4 6/1/4
f 8/1/5 2/1/5 7/1/5
f 2/1/5 8/1/5 1/1/5
f 5/1/6 8/1/6 7/1/6
f 8/1/6 5/1/6 6/1/6
f 9/1/1 2/1/1 1/1/1
f 2/1/1 9/1/1 10/1/1
f 9/1/2 11/1/2 10/1/2
f 11/1/2 9/1/2 12/1/2
f 11/1/3 2/1/3 10/1/3
f 2/1/3 11/1/3 7/1/3
f 8/1/4 9/1/4 1/1/4
f 9/1/4 8/1/4 12/1/4
f 8/1/5 2/1/5 7/1/5
f 2/1/5 8/1/5 1/1/5
f 11/1/6 8/1/6 7/1/6
f 8/1/6 11/1/6 12/1/6
f 15/1/1 14/1/1 13/1/1
f 14/1/1 15/1/1 16/1/1
f 15/1/2 2/1/2 16/1/2
f 2/1/2 15/1/2 1/1/2
f 2/1/3 14/1/3 16/1/3
f 14/1/3 2/1/3 17/1/3
f 18/1/4 15/1/4 13/1/4
f 15/1/4 18/1/4 1/1/4
f 18/1/5 14/1/5 17/1/5
f 14/1/5 18/1/5 13/1/5
f 2/1/6 18/1/6 17/1/6
f 18/1/6 2/1/6 1/1/6
f 21/1/1 20/1/1 19/1/1
f 20/1/1 21/1/1 22/1/1
f 21/1/2 23/1/2 22/1/2
f 23/1/2 21/1/2 24/1/2
f 23/1/3 20/1/3 22/1/3
f 20/1/3 23/1/3 4/1/3
f 3/1/4 21/1/4 19/1/4
f 21/1/4 3/1/4 24/1/4
f 3/1/5 20/1/5 4/1/5
f 20/1/5 3/1/5 19/1/5
f 23/1/6 3/1/6 4/1/6
f 3/1/6 23/1/6 24/1/6
f 27/1/1 26/1/1 25/1/1
f 26/1/1 27/1/1 28/1/1
f 27/1/2 14/1/2 28/1/2
f 14/1/2 27/1/2 13/1/2
f 14/1/3 26/1/3 28/1/3
f 26/1/3 14/1/3 29/1/3
f 30/1/4 27/1/4 25/1/4
f 27/1/4 30/1/4 13/1/4
f 30/1/5 26/1/5 29/1/5
f 26/1/5 30/1/5 25/1/5
f 14/1/6 30/1/6 29/1/6
f 30/1/6 14/1/6 13/1/6
f 33/1/1 32/1/1 31/1/1
f 32/1/1 33/1/1 34/1/1
f 33/1/2 35/1/2 34/1/2
f 35/1/2 33/1/2 36/1/2
f 35/1/3 32/1/3 34/1/3
f 32/1/3 35/1/3 22/1/3
f 21/1/4 33/1/4 31/1/4
f 33/1/4 21/1/4 36/1/4
f 21/1/5 32/1/5 22/1/5
f 32/1/5 21/1/5 31/1/5
f 35/1/6 21/1/6 22/1/6
f 21/1/6 35/1/6 36/1/6
f 39/1/1 38/1/1 37/1/1
f 38/1/1 39/1/1 40/1/1
f 39/1/2 26/1/2 40/1/2
f 26/1/2 39/1/2 25/1/2
f 26/1/3 38/1/3 40/1/3
f 38/1/3 26/1/3 41/1/3
f 42/1/4 39/1/4 37/1/4
f 39/1/4 42/1/4 25/1/4
f 42/1/5 38/1/5 41/1/5
f 38/1/5 42/1/5 37/1/5
f 26/1/6 42/1/6 41/1/6
f 42/1/6 26/1/6 25/1/6
f 45/1/1 44/1/1 43/1/1
f 44/1/1 45/1/1 46/1/1
f 45/1/2 47/1/2 46/1/2
f 47/1/2 45/1/2 48/1/2
f 47/1/3 44/1/3 46/1/3
f 44/1/3 47/1/3 49/1/3
f 50/1/4 45/1/4 43/1/4
f 45/1/4 50/1/4 48/1/4
f 50/1/5 44/1/5 49/1/5
f 44/1/5 50/1/5 43/1/5
f 47/1/6 50/1/6 49/1/6
f 50/1/6 47/1/6 48/1/6
f 53/1/1 52/1/1 51/1/1
f 52/1/1 53/1/1 54/1/1
f 53/1/2 55/1/2 54/1/2
f 55/1/2 53/1/2 56/1/2
f 55/1/3 52/1/3 54/1/3
f 52/1/3 55/1/3 34/1/3
f 33/1/4 53/1/4 51/1/4
f 53/1/4 33/1/4 56/1/4
f 33/1/5 52/1/5 34/1/5
f 52/1/5 33/1/5 51/1/5
f 55/1/6 33/1/6 34/1/6
f 33/1/6 55/1/6 56/1/6
f 59/1/1 58/1/1 57/1/1
f 58/1/1 59/1/1 60/1/1
f 59/1/2 61/1/2 60/1/2
f 61/1/2 59/1/2 62/1/2
f 61/1/3 58/1/3 60/1/3
f 58/1/3 61/1/3 63/1/3
f 64/1/4 59/1/4 57/1/4
f 59/1/4 64/1/4 62/1/4
f 64/1/5 58/1/5 63/1/5
f 58/1/5 64/1/5 57/1/5
f 61/1/6 64/1/6 63/1/6
f 64/1/6 61/1/6 62/1/6
f 67/1/1 66/1/1 65/1/1
f 66/1/1 67/1/1 68/1/1
f 67/1/2 44/1/2 68/1/2
f 44/1/2 67/1/2 43/1/2
f 44/1/3 66/1/3 68/1/3
f 66/1/3 44/1/3 61/1/3
f 62/1/4 67/1/4 65/1/4
f 67/1/4 62/1/4 43/1/4
f 62/1/5 66/1/5 61/1/5
f 66/1/5 62/1/5 65/1/5
f 44/1/6 62/1/6 61/1/6
f 62/1/6 44/1/6 43/1/6
f 71/1/1 70/1/1 69/1/1
f 70/1/1 71/1/1 72/1/1
f 71/1/2 73/1/2 72/1/2
f 73/1/2 71/1/2 74/1/2
f 73/1/3 70/1/3 72/1/3
f 70/1/3 73/1/3 46/1/3
f 45/1/4 71/1/4 69/1/4
f 71/1/4 45/1/4 74/1/4
f 45/1/5 70/1/5 46/1/5
f 70/1/5 45/1/5 69/1/5
f 73/1/6 45/1/6 46/1/6
f 45/1/6 73/1/6 74/1/6
f 77/1/1 76/1/1 75/1/1
f 76/1/1 77/1/1 78/1/1
f 77/1/2 79/1/2 78/1/2
f 79/1/2 77/1/2 80/1/2
f 79/1/3 76/1/3 78/1/3
f 76/1/3 79/1/3 72/1/3
f 71/1/4 77/1/4 75/1/4
f 77/1/4 71/1/4 80/1/4
f 71/1/5 76/1/5 72/1/5
f 76/1/5 71/1/5 75/1/5
f 79/1/6 71/1/6 72/1/6
f 71/1/6 79/1/6 80/1/6
f 81/1/1 60/1/1 59/1/1
f 60/1/1 81/1/1 82/1/1
f 81/1/2 83/1/2 82/1/2
f 83/1/2 81/1/2 84/1/2
f 83/1/3 60/1/3 82/1/3
f 60/1/3 83/1/3 85/1/3
f 86/1/4 81/1/4 59/1/4
f 81/1/4 86/1/4 84/1/4
f 86/1/5 60/1/5 85/1/5
f 60/1/5 86/1/5 59/1/5
f 83/1/6 86/1/6 85/1/6
f 86/1/6 83/1/6 84/1/6
f 89/1/1 88/1/1 87/1/1
f 88/1/1 89/1/1 90/1/1
f 89/1/2 91/1/2 90/1/2
f 91/1/2 89/1/2 92/1/2
f 91/1/3 88/1/3 90/1/3
f 88/1/3 91/1/3 82/1/3
f 81/1/4 89/1/4 87/1/4
f 89/1/4 81/1/4 92/1/4
f 81/1/5 88/1/5 82/1/5
f 88/1/5 81/1/5 87/1/5
f 91/1/6 81/1/6 82/1/6
f 81/1/6 91/1/6 92/1/6
f 95/1/1 94/1/1 93/1/1
f 94/1/1 95/1/1 96/1/1
f 95/1/2 97/1/2 96/1/2
f 97/1/2 95/1/2 98/1/2
f 97/1/3 94/1/3 96/1/3
f 94/1/3 97/1/3 90/1/3
f 89/1/4 95/1/4 93/1/4
f 95/1/4 89/1/4 98/1/4
f 89/1/5 94/1/5 90/1/5
f 94/1/5 89/1/5 93/1/5
f 97/1/6 89/1/6 90/1/6
f 89/1/6 97/1/6 98/1/6
f 101/1/1 100/1/1 99/1/1
f 100/1/1 101/1/1 102/1/1
f 101/1/2 103/1/2 102/1/2
f 103/1/2 101/1/2 104/1/2
f 103/1/3 100/1/3 102/1/3
f 100/1/3 103/1/3 105/1/3
f 106/1/4 101/1/4 99/1/4
f 101/1/4 106/1/4 104/1/4
f 106/1/5 100/1/5 105/1/5
f 100/1/5 106/1/5 99/1/5
f 103/1/6 106/1/6 105/1/6
f 106/1/6 103/1/6 104/1/6
f 109/1/1 108/1/1 107/1/1
f 108/1/1 109/1/1 110/1/1
f 109/1/2 96/1/2 110/1/2
f 96/1/2 109/1/2 95/1/2
f 96/1/3 108/1/3 110/1/3
f 108/1/3 96/1/3 111/1/3
f 112/1/4 109/1/4 107/1/4
f 109/1/4 112/1/4 95/1/4
f 112/1/5 108/1/5 111/1/5
f 108/1/5 112/1/5 107/1/5
f 96/1/6 112/1/6 111/1/6
f 112/1/6 96/1/6 95/1/6
f 115/1/1 114/1/1 113/1/1
f 114/1/1 115/1/1 116/1/1
f 115/1/2 117/1/2 116/1/2
f 117/1/2 115/1/2 118/1/2
f 117/1/3 114/1/3 116/1/3
f 114/1/3 117/1/3 119/1/3
f 120/1/4 115/1/4 113/1/4
f 115/1/4 120/1/4 118/1/4
f 120/1/5 114/1/5 119/1/5
f 114/1/5 120/1/5 113/1/5
f 117/1/6 120/1/6 119/1/6
f 120/1/6 117/1/6 118/1/6
f 123/1/1 122/1/1 121/1/1
f 122/1/1 123/1/1 124/1/1
f 123/1/2 108/1/2 124/1/2
f 108/1/2 123/1/2 107/1/2
f 108/1/3 122/1/3 124/1/3
f 122/1/3 108/1/3 102/1/3
f 101/1/4 123/1/4 121/1/4
f 123/1/4 101/1/4 107/1/4
f 101/1/5 122/1/5 102/1/5
f 122/1/5 101/1/5 121/1/5
f 108/1/6 101/1/6 102/1/6
f 101/1/6 108/1/6 107/1/6
f 127/1/1 126/1/1 125/1/1
f 126/1/1 127/1/1 128/1/1
f 127/1/2 129/1/2 128/1/2
f 129/1/2 127/1/2 130/1/2
f 129/1/3 126/1/3 128/1/3
f 126/1/3 129/1/3 40/1/3
f 39/1/4 127/1/4 125/1/4
f 127/1/4 39/1/4 130/1/4
f 39/1/5 126/1/5 40/1/5
f 126/1/5 39/1/5 125/1/5
f 129/1/6 39/1/6 40/1/6
f 39/1/6 129/1/6 130/1/6
f 133/1/1 132/1/1 131/1/1
f 132/1/1 133/1/1 134/1/1
f 133/1/2 114/1/2 134/1/2
f 114/1/2 133/1/2 113/1/2
f 114/1/3 132/1/3 134/1/3
f 132/1/3 114/1/3 135/1/3
f 136/1/4 133/1/4 131/1/4
f 133/1/4 136/1/4 113/1/4
f 136/1/5 132/1/5 135/1/5
f 132/1/5 136/1/5 131/1/5
f 114/1/6 136/1/6 135/1/6
f 136/1/6 114/1/6 113/1/6
f 139/1/1 138/1/1 137/1/1
f 138/1/1 139/1/1 140/1/1
f 139/1/2 141/1/2 140/1/2
f 141/1/2 139/1/2 142/1/2
f 141/1/3 138/1/3 140/1/3
f 138/1/3 141/1/3 128/1/3
f 127/1/4 139/1/4 137/1/4
f 139/1/4 127/1/4 142/1/4
f 127/1/5 138/1/5 128/1/5
f 138/1/5 127/1/5 137/1/5
f 141/1/6 127/1/6 128/1/6
f 127/1/6 141/1/6 142/1/6
f 145/1/1 144/1/1 143/1/1
f 144/1/1 145/1/1 146/1/1
f 145/1/2 132/1/2 146/1/2
f 132/1/2 145/1/2 131/1/2
f 132/1/3 144/1/3 146/1/3
f 144/1/3 132/1/3 147/1/3
f 148/1/4 145/1/4 143/1/4
f 145/1/4 148/1/4 131/1/4
f 148/1/5 144/1/5 147/1/5
f 144/1/5 148/1/5 143/1/5
f 132/1/6 148/1/6 147/1/6
f 148/1/6 132/1/6 131/1/6
f 151/1/1 150/1/1 149/1/1
f 150/1/1 151/1/1 152/1/1
f 151/1/2 144/1/2 152/1/2
f 144/1/2 151/1/2 143/1/2
f 144/1/3 150/1/3 152/1/3
f 150/1/3 144/1/3 140/1/3
f 139/1/4 151/1/4 149/1/4
f 151/1/4 139/1/4 143/1/4
f 139/1/5 150/1/5 140/1/5
f 150/1/5 139/1/5 149/1/5
f 144/1/6 139/1/6 140/1/6
f 139/1/6 144/1/6 143/1/6
f 67/1/1 66/1/1 65/1/1
f 66/1/1 67/1/1 68/1/1
f 67/1/2 44/1/2 68/1/2
f 44/1/2 67/1/2 43/1/2
f 44/1/3 66/1/3 68/1/3
f 66/1/3 44/1/3 61/1/3
f 62/1/4 67/1/4 65/1/4
f 67/1/4 62/1/4 43/1/4
f 62/1/5 66/1/5 61/1/5
f 66/1/5 62/1/5 65/1/5
f 44/1/6 62/1/6 61/1/6
f 62/1/6 44/1/6 43/1/6

